<?xml version="1.0" standalone="no"?>
<!DOCTYPE svg PUBLIC "-//W3C//DTD SVG 20010904//EN"
 "http://www.w3.org/TR/2001/REC-SVG-20010904/DTD/svg10.dtd">
<svg version="1.0" xmlns="http://www.w3.org/2000/svg"
 width="512.000000pt" height="512.000000pt" viewBox="0 0 512.000000 512.000000"
 preserveAspectRatio="xMidYMid meet">
<metadata>
Created by potrace 1.11, written by Peter Selinger 2001-2013
</metadata>
<g transform="translate(0.000000,512.000000) scale(0.100000,-0.100000)"
fill="#000000" stroke="none">
<path d="M1720 4143 c-403 -59 -733 -324 -865 -693 -74 -209 -81 -458 -19
-658 9 -29 15 -54 12 -57 -2 -2 -29 -7 -59 -10 -361 -41 -649 -285 -755 -641
-32 -108 -39 -275 -18 -397 50 -284 262 -544 534 -655 173 -70 47 -66 1933
-66 1240 -1 1723 2 1790 11 156 20 283 68 425 161 203 133 364 385 408 637 10
52 11 247 2 306 -60 416 -404 759 -818 816 -63 9 -225 9 -286 0 l-52 -7 -7 37
c-4 21 -20 70 -37 110 -160 386 -590 580 -985 445 l-80 -28 -27 68 c-60 144
-194 312 -336 419 -95 72 -237 140 -365 175 -5 2 -23 6 -40 9 -16 3 -46 10
-65 14 -36 8 -245 11 -290 4z"/>
</g>
</svg>
